<svg xmlns="http://www.w3.org/2000/svg" viewBox="0 0 32 32" width="32" height="32">
  <defs>
    <radialGradient id="fg" cx="62%" cy="32%" r="68%">
      <stop offset="0%" stop-color="#cce8ff"/>
      <stop offset="40%" stop-color="#85c5f8"/>
      <stop offset="100%" stop-color="#3a82d4"/>
    </radialGradient>
    <clipPath id="fc">
      <circle cx="16" cy="16" r="15"/>
    </clipPath>
  </defs>
  <circle cx="16" cy="16" r="15" fill="url(#fg)"/>
  <path d="M 3 19 C 4 13,8 8,13 9 C 18 10,22 14,22 19 C 22 24,17 27,12 26 C 7 25,2 25,3 19 Z"
    fill="rgba(255,255,255,0.30)" clip-path="url(#fc)"/>
  <path d="M 12 2 C 17 1,22 5,25 10 C 28 15,27 21,24 24 C 21 27,16 27,12 25 C 8 23,8 18,9 13 C 10 8,8 3,12 2 Z"
    fill="rgba(255,255,255,0.22)" clip-path="url(#fc)"/>
</svg>
